<svg width="18" height="21" viewBox="0 0 18 21" fill="none" xmlns="http://www.w3.org/2000/svg">
<path d="M6.77708 16.9318C2.62324 18.2159 2.62324 14.7917 0.9617 14.3637M12.5925 19.5V16.1871C12.6236 15.7789 12.5701 15.3685 12.4355 14.9833C12.3008 14.5981 12.0881 14.2468 11.8115 13.9528C14.4202 13.6532 17.1617 12.6345 17.1617 7.96044C17.1615 6.76524 16.7153 5.61588 15.9155 4.75025C16.2943 3.70459 16.2675 2.54878 15.8408 1.52294C15.8408 1.52294 14.8605 1.22332 12.5925 2.78989C10.6884 2.25813 8.6812 2.25813 6.77708 2.78989C4.50908 1.22332 3.52878 1.52294 3.52878 1.52294C3.10207 2.54878 3.0753 3.70459 3.45401 4.75025C2.64827 5.62231 2.20164 6.78205 2.20785 7.98612C2.20785 12.6259 4.94939 13.6446 7.55801 13.9785C7.28468 14.2695 7.07389 14.6166 6.93934 14.9971C6.80479 15.3776 6.74951 15.7831 6.77708 16.1871V19.5" stroke="#1F1F1F" stroke-width="1.5" stroke-linecap="round" stroke-linejoin="round"/>
</svg>
